<svg xmlns="http://www.w3.org/2000/svg" viewBox="0 0 354.3 177.29"><defs><style>.cls-1{fill:#231e1a;}</style></defs><g id="Capa_2" data-name="Capa 2"><g id="Capa_1-2" data-name="Capa 1"><path class="cls-1" d="M48.89,34.44a14.16,14.16,0,0,1,2.92,8.85q0,7.65-5.06,11.81T32.23,59.25H1.7V1H31.4q8.9,0,14,3.87T50.5,16.13a13.76,13.76,0,0,1-2.68,8.6,12.68,12.68,0,0,1-7.12,4.65A13.9,13.9,0,0,1,48.89,34.44ZM20,23.7H27a5.63,5.63,0,0,0,3.66-1,3.71,3.71,0,0,0,1.2-3,4,4,0,0,0-1.2-3.17,5.46,5.46,0,0,0-3.66-1H20Zm12,20a3.72,3.72,0,0,0,1.19-3.09q0-4.2-4.85-4.2H20V44.6h8.32A5.87,5.87,0,0,0,31.94,43.66Z"/><path class="cls-1" d="M95.34,50.45H75.92L73,59.25H53.87L75.18,1H96.25l21.23,58.26H98.22ZM90.9,36.7,85.63,20.49,80.37,36.7Z"/><path class="cls-1" d="M127.15,54.93q-6.8-4.89-7.37-14.36h19.43q.4,5,4.44,5a4.34,4.34,0,0,0,2.51-.7,2.43,2.43,0,0,0,1-2.18A3.78,3.78,0,0,0,145,39.38a43.66,43.66,0,0,0-6.92-2.92,75.19,75.19,0,0,1-9.25-3.87,17.86,17.86,0,0,1-6.3-5.52A15,15,0,0,1,120,17.78a15.9,15.9,0,0,1,2.92-9.67,18.07,18.07,0,0,1,8-6A30.11,30.11,0,0,1,142.25,0q10.69,0,17,4.94t6.63,13.91H146.2A4.89,4.89,0,0,0,145,15.31a3.94,3.94,0,0,0-2.8-1.07,2.48,2.48,0,0,0-1.89.78,3,3,0,0,0-.74,2.18,3.72,3.72,0,0,0,2.18,3.25,50.16,50.16,0,0,0,6.95,3.09,76.93,76.93,0,0,1,9.09,3.95A19.24,19.24,0,0,1,164,32.75a13.41,13.41,0,0,1,2.63,8.48,17.24,17.24,0,0,1-10.29,16.21,27.54,27.54,0,0,1-11.93,2.39Q133.94,59.83,127.15,54.93Z"/><path class="cls-1" d="M191.3,1V59.25H173V1Z"/><path class="cls-1" d="M205.08,54.93q-6.79-4.89-7.36-14.36h19.42q.41,5,4.44,5a4.34,4.34,0,0,0,2.51-.7,2.43,2.43,0,0,0,1-2.18,3.78,3.78,0,0,0-2.22-3.33A43.88,43.88,0,0,0,216,36.46a74.75,74.75,0,0,1-9.26-3.87,18,18,0,0,1-6.3-5.52,15.08,15.08,0,0,1-2.55-9.29,15.9,15.9,0,0,1,2.92-9.67,18.07,18.07,0,0,1,8-6A30.11,30.11,0,0,1,220.18,0q10.69,0,17,4.94t6.62,13.91H224.13a4.85,4.85,0,0,0-1.23-3.54,3.94,3.94,0,0,0-2.8-1.07,2.48,2.48,0,0,0-1.89.78,3,3,0,0,0-.74,2.18,3.72,3.72,0,0,0,2.18,3.25,50.16,50.16,0,0,0,6.95,3.09,76.21,76.21,0,0,1,9.09,3.95,19.24,19.24,0,0,1,6.22,5.26,13.41,13.41,0,0,1,2.63,8.48,17.24,17.24,0,0,1-10.29,16.21,27.54,27.54,0,0,1-11.93,2.39Q211.87,59.83,205.08,54.93Z"/><path class="cls-1" d="M62.79,76,43.2,134.26H19.59L0,76H19.42l12,40.08L43.37,76Z"/><path class="cls-1" d="M85.17,76v58.27H66.9V76Z"/><path class="cls-1" d="M99,129.93q-6.79-4.89-7.37-14.36H111q.42,5,4.45,5a4.43,4.43,0,0,0,2.51-.69,2.48,2.48,0,0,0,1-2.19,3.79,3.79,0,0,0-2.23-3.33,44.42,44.42,0,0,0-6.91-2.92,75.41,75.41,0,0,1-9.26-3.87,17.9,17.9,0,0,1-6.29-5.51,15.06,15.06,0,0,1-2.56-9.3,15.9,15.9,0,0,1,2.93-9.67,18,18,0,0,1,8-6A30,30,0,0,1,114.06,75q10.69,0,17,4.94t6.62,13.91H118a4.89,4.89,0,0,0-1.24-3.54A4,4,0,0,0,114,89.24a2.52,2.52,0,0,0-1.9.78,3.06,3.06,0,0,0-.74,2.18,3.74,3.74,0,0,0,2.18,3.25,49.85,49.85,0,0,0,7,3.09,79.41,79.41,0,0,1,9.09,3.95,19.24,19.24,0,0,1,6.21,5.27,13.32,13.32,0,0,1,2.64,8.47,17.77,17.77,0,0,1-2.64,9.59,17.55,17.55,0,0,1-7.65,6.62,27.42,27.42,0,0,1-11.93,2.39Q105.75,134.83,99,129.93Z"/><path class="cls-1" d="M162.69,76v32.84a10.34,10.34,0,0,0,1.77,6.37q1.77,2.35,5.72,2.35T176,115.2a9.87,9.87,0,0,0,1.9-6.37V76H196.1v32.84A27.57,27.57,0,0,1,192.65,123a22.14,22.14,0,0,1-9.47,8.85,29.94,29.94,0,0,1-13.41,3,28.19,28.19,0,0,1-13.13-3,21.13,21.13,0,0,1-8.93-8.81,29.17,29.17,0,0,1-3.21-14.23V76Z"/><path class="cls-1" d="M241.36,125.45H221.94l-2.88,8.81H199.89L221.2,76h21.07l21.23,58.27H244.24Zm-4.44-13.74-5.27-16.22-5.26,16.22Z"/><path class="cls-1" d="M285.88,120.43h17.61v13.83H267.61V76h18.27Z"/><path class="cls-1" d="M314.81,129.93q-6.8-4.89-7.36-14.36h19.42q.4,5,4.44,5a4.41,4.41,0,0,0,2.51-.69,2.48,2.48,0,0,0,1-2.19,3.78,3.78,0,0,0-2.22-3.33,45.06,45.06,0,0,0-6.92-2.92,75.19,75.19,0,0,1-9.25-3.87,17.84,17.84,0,0,1-6.3-5.51,15,15,0,0,1-2.55-9.3,15.9,15.9,0,0,1,2.92-9.67,18.07,18.07,0,0,1,8-6A30.07,30.07,0,0,1,329.91,75q10.69,0,17,4.94t6.63,13.91H333.86a4.89,4.89,0,0,0-1.23-3.54,4,4,0,0,0-2.8-1.07,2.52,2.52,0,0,0-1.9.78,3.06,3.06,0,0,0-.73,2.18,3.72,3.72,0,0,0,2.18,3.25,50.16,50.16,0,0,0,6.95,3.09,78.63,78.63,0,0,1,9.09,3.95,19.27,19.27,0,0,1,6.22,5.27,13.38,13.38,0,0,1,2.63,8.47,17.85,17.85,0,0,1-2.63,9.59,17.63,17.63,0,0,1-7.66,6.62,27.39,27.39,0,0,1-11.93,2.39Q321.59,134.83,314.81,129.93Z"/><path class="cls-1" d="M1.67,151.71H9.74a14.06,14.06,0,0,1,3.45.41A8.09,8.09,0,0,1,16,153.36a5.73,5.73,0,0,1,1.85,2.12,6.64,6.64,0,0,1,.67,3.06,5.73,5.73,0,0,1-.38,2,5,5,0,0,1-1,1.64,5.72,5.72,0,0,1-1.05.91,7.63,7.63,0,0,1-1.34.7v0A5.82,5.82,0,0,1,18,166a5.69,5.69,0,0,1,.84,1.69,6.52,6.52,0,0,1,.28,1.95,7,7,0,0,1-.64,3.17,6.47,6.47,0,0,1-1.82,2.29,8,8,0,0,1-2.76,1.41,12.1,12.1,0,0,1-3.48.47H1.67Zm8.16,10.66a6.93,6.93,0,0,0,1.88-.28,4,4,0,0,0,1.45-.76,3.2,3.2,0,0,0,1.16-2.57,3.76,3.76,0,0,0-.29-1.53,2.87,2.87,0,0,0-.8-1.07,3.7,3.7,0,0,0-1.48-.75,7.81,7.81,0,0,0-1.95-.25H5.86v7.21Zm-4,11.14h4.58a5.67,5.67,0,0,0,1.8-.27,4.24,4.24,0,0,0,1.39-.77,3.37,3.37,0,0,0,1-1.24,3.93,3.93,0,0,0,.34-1.63,4.87,4.87,0,0,0-.28-1.69,3.3,3.3,0,0,0-.83-1.26,3.8,3.8,0,0,0-1.35-.81,5.69,5.69,0,0,0-1.82-.3H5.86Z"/><path class="cls-1" d="M29.88,167.15v9.79H25.72V151.71h8a13.21,13.21,0,0,1,3.6.5,8.32,8.32,0,0,1,2.84,1.42A6.6,6.6,0,0,1,42,156a7.71,7.71,0,0,1,.66,3.3,7.6,7.6,0,0,1-.34,2.36,6.74,6.74,0,0,1-.94,1.9,6.92,6.92,0,0,1-1.46,1.5,10.28,10.28,0,0,1-1.89,1.1l5.39,10.56v.22H39l-4.84-9.79Zm3.9-3.4a6.25,6.25,0,0,0,2-.33,4.41,4.41,0,0,0,1.52-.93,3.61,3.61,0,0,0,.86-1.28,4.54,4.54,0,0,0,.31-1.74,5.13,5.13,0,0,0-.33-1.91,3.56,3.56,0,0,0-1-1.38,4.07,4.07,0,0,0-1.47-.79,6.88,6.88,0,0,0-1.94-.28H29.88v8.64Z"/><path class="cls-1" d="M54,171.14l-1.71,5.8H47.91l8.22-25.23h3.69l8.08,25.23H63.58l-1.7-5.8Zm6.9-3.57-2.89-10-2.95,10Z"/><path class="cls-1" d="M85.71,176.94l-8.2-17.36,0,17.36H73.28V151.71h4.23L85.66,169l0-17.3h4.2v25.23Z"/><path class="cls-1" d="M97.37,151.71h6.24a12.1,12.1,0,0,1,3.06.37,11.09,11.09,0,0,1,2.62,1,8.93,8.93,0,0,1,2.28,1.7,10.19,10.19,0,0,1,1.67,2.29,12.89,12.89,0,0,1,1.08,2.89,14.62,14.62,0,0,1,.38,3.37v2a14.13,14.13,0,0,1-.36,3.25,11.46,11.46,0,0,1-1,2.8,11,11,0,0,1-1.55,2.24,9.91,9.91,0,0,1-2,1.71,10.46,10.46,0,0,1-2.77,1.2,12.11,12.11,0,0,1-3.25.41H97.37Zm4.21,21.86h2.16a7.3,7.3,0,0,0,2-.27,5.7,5.7,0,0,0,1.67-.78,5.58,5.58,0,0,0,1.36-1.3,7,7,0,0,0,1-1.81,10.43,10.43,0,0,0,.51-1.89,13.8,13.8,0,0,0,.17-2.19v-2a13.73,13.73,0,0,0-.17-2.17,10.11,10.11,0,0,0-.51-1.88,6.79,6.79,0,0,0-1.11-1.92A5.6,5.6,0,0,0,107,156a6.05,6.05,0,0,0-1.56-.62,8.47,8.47,0,0,0-1.87-.23h-2Z"/><path class="cls-1" d="M137,151.71v3.45h-5.39v18.35H137v3.43H122.14v-3.43h5.27V155.16h-5.27v-3.45Z"/><path class="cls-1" d="M157.6,176.94l-8.2-17.36,0,17.36h-4.21V151.71h4.23l8.15,17.3,0-17.3h4.2v25.23Z"/><path class="cls-1" d="M185.1,175.05a9.91,9.91,0,0,1-1.68,1,12,12,0,0,1-2.57.89,13.3,13.3,0,0,1-3,.32,9.51,9.51,0,0,1-2.72-.38,8.17,8.17,0,0,1-2.29-1.07,8.86,8.86,0,0,1-1.83-1.69,9.38,9.38,0,0,1-1.34-2.2,11.72,11.72,0,0,1-.92-2.79,16.44,16.44,0,0,1-.33-3.2v-3.23a17.56,17.56,0,0,1,.3-3.12,12.79,12.79,0,0,1,.84-2.75,11.27,11.27,0,0,1,1.29-2.19,8.56,8.56,0,0,1,1.69-1.71,8.34,8.34,0,0,1,2.3-1.18,8.58,8.58,0,0,1,2.73-.42,10.7,10.7,0,0,1,3.54.54,7.55,7.55,0,0,1,2.63,1.54,7.44,7.44,0,0,1,1.75,2.47,10.55,10.55,0,0,1,.82,3.25h-4.09a9,9,0,0,0-.47-1.79A4.27,4.27,0,0,0,181,156a3.64,3.64,0,0,0-1.36-.9,5.21,5.21,0,0,0-1.9-.32,4,4,0,0,0-1.48.27,4.28,4.28,0,0,0-1.21.74,4.92,4.92,0,0,0-1.08,1.33,8.18,8.18,0,0,0-.76,1.75,11.27,11.27,0,0,0-.38,1.82,16.4,16.4,0,0,0-.12,2V166a15,15,0,0,0,.17,2.27,10,10,0,0,0,.49,2,8.63,8.63,0,0,0,.61,1.3,5,5,0,0,0,.85,1.07,4.1,4.1,0,0,0,1.41.94,5,5,0,0,0,1.83.35,10.43,10.43,0,0,0,1.23-.08,7.61,7.61,0,0,0,1.19-.25,6.38,6.38,0,0,0,1-.44,2.33,2.33,0,0,0,.74-.64l0-5h-4.58v-3.24h8.67l0,9.65A8.12,8.12,0,0,1,185.1,175.05Z"/><path class="cls-1" d="M230.17,168.89a4.22,4.22,0,0,0-1-1.22,8.69,8.69,0,0,0-1.64-.91,16,16,0,0,0-2.1-.73,19.9,19.9,0,0,1-3.29-1.24,11.7,11.7,0,0,1-2.55-1.66A7,7,0,0,1,217.9,161a5.86,5.86,0,0,1-.59-2.68,6.06,6.06,0,0,1,.69-2.9,6.84,6.84,0,0,1,1.87-2.21,8.66,8.66,0,0,1,2.75-1.38,11.16,11.16,0,0,1,3.3-.48,10.06,10.06,0,0,1,3.42.57,8.62,8.62,0,0,1,2.77,1.56,7.8,7.8,0,0,1,1.86,2.44,7,7,0,0,1,.68,3.13h-4.12a5.84,5.84,0,0,0-.41-1.74,4,4,0,0,0-.89-1.36,4.21,4.21,0,0,0-1.43-.88,5.5,5.5,0,0,0-1.93-.32,5.8,5.8,0,0,0-1.76.25,4.59,4.59,0,0,0-1.4.7,3.35,3.35,0,0,0-.92,1.13,3.24,3.24,0,0,0-.33,1.47,2.84,2.84,0,0,0,.46,1.52,3.92,3.92,0,0,0,1.16,1.13,8.18,8.18,0,0,0,1.7.85c.64.25,1.32.47,2,.68a20.31,20.31,0,0,1,2.61.94,12.64,12.64,0,0,1,2.35,1.36,8.05,8.05,0,0,1,2.14,2.41,6.28,6.28,0,0,1,.81,3.21,6,6,0,0,1-.71,3,6.24,6.24,0,0,1-1.88,2.14,8.27,8.27,0,0,1-2.77,1.32,12.07,12.07,0,0,1-3.33.44,11.75,11.75,0,0,1-3.65-.58,9.13,9.13,0,0,1-3.14-1.69,7.79,7.79,0,0,1-1.95-2.44,7.11,7.11,0,0,1-.74-3.22h4.16a5.61,5.61,0,0,0,.5,2,3.87,3.87,0,0,0,1.11,1.41,4.74,4.74,0,0,0,1.64.85,7.51,7.51,0,0,0,2.07.27,6.73,6.73,0,0,0,1.78-.22,4.21,4.21,0,0,0,1.43-.68,3.22,3.22,0,0,0,.94-1.07,3,3,0,0,0,.36-1.48A3.25,3.25,0,0,0,230.17,168.89Z"/><path class="cls-1" d="M251.46,155.16v21.78h-4.14V155.16h-7.73v-3.45h19.65v3.45Z"/><path class="cls-1" d="M281.73,168.59a10.07,10.07,0,0,1-.6,3.56,7.77,7.77,0,0,1-1.69,2.75,7.66,7.66,0,0,1-2.66,1.77,9.33,9.33,0,0,1-3.47.62,9.1,9.1,0,0,1-3.42-.61,7.35,7.35,0,0,1-2.6-1.76,8.11,8.11,0,0,1-1.69-2.76,10.6,10.6,0,0,1-.61-3.57l0-16.88h4.11l0,16.88a8.72,8.72,0,0,0,.29,2.19,4.84,4.84,0,0,0,.82,1.69,3.53,3.53,0,0,0,1.27,1,3.9,3.9,0,0,0,1.76.38,4.18,4.18,0,0,0,1.81-.38,3.52,3.52,0,0,0,1.33-1.06,5.2,5.2,0,0,0,.81-1.69,8.46,8.46,0,0,0,.31-2.16l0-16.88h4.1Z"/><path class="cls-1" d="M289.07,151.71h6.24a12.13,12.13,0,0,1,3.07.37,11.09,11.09,0,0,1,2.62,1,9.29,9.29,0,0,1,2.28,1.7A10.19,10.19,0,0,1,305,157.1,12.41,12.41,0,0,1,306,160a14.09,14.09,0,0,1,.39,3.37v2a14.13,14.13,0,0,1-.36,3.25,11.89,11.89,0,0,1-1,2.8,11,11,0,0,1-1.55,2.24,9.91,9.91,0,0,1-2,1.71,10.61,10.61,0,0,1-2.77,1.2,12.11,12.11,0,0,1-3.25.41h-6.38Zm4.22,21.86h2.16a7.3,7.3,0,0,0,2-.27,5.82,5.82,0,0,0,1.67-.78,5.76,5.76,0,0,0,1.36-1.3,7,7,0,0,0,1-1.81,9.68,9.68,0,0,0,.5-1.89,12.69,12.69,0,0,0,.18-2.19v-2a12.62,12.62,0,0,0-.18-2.17,9.39,9.39,0,0,0-.5-1.88,7.3,7.3,0,0,0-1.11-1.92,5.51,5.51,0,0,0-1.65-1.39,6.13,6.13,0,0,0-1.55-.62,8.56,8.56,0,0,0-1.88-.23h-2Z"/><path class="cls-1" d="M328.72,151.71v3.45h-5.39v18.35h5.39v3.43H313.85v-3.43h5.27V155.16h-5.27v-3.45Z"/><path class="cls-1" d="M354,169a15,15,0,0,1-.77,2.69,11,11,0,0,1-1.34,2.33,8.82,8.82,0,0,1-1.83,1.83,9,9,0,0,1-7.67,1.07,7.78,7.78,0,0,1-4-3,11.06,11.06,0,0,1-1.25-2.36,12.79,12.79,0,0,1-.73-2.62,16.93,16.93,0,0,1-.24-2.87v-3.33a16.12,16.12,0,0,1,.26-3,13.16,13.16,0,0,1,.78-2.72,10.28,10.28,0,0,1,1.24-2.26,8.26,8.26,0,0,1,1.74-1.8,7.36,7.36,0,0,1,2.21-1.15,9.32,9.32,0,0,1,5.5,0,8,8,0,0,1,2.27,1.16,8.54,8.54,0,0,1,1.75,1.75,10.53,10.53,0,0,1,1.25,2.2,12.74,12.74,0,0,1,.83,2.75,15.92,15.92,0,0,1,.28,3V166A15.6,15.6,0,0,1,354,169Zm-4-8.18a10.83,10.83,0,0,0-.32-1.75,8.4,8.4,0,0,0-.68-1.74,5.36,5.36,0,0,0-1-1.34,4,4,0,0,0-1.24-.76,4.51,4.51,0,0,0-3.1,0,3.84,3.84,0,0,0-1.18.73,5.57,5.57,0,0,0-1,1.36,7.34,7.34,0,0,0-.64,1.76,12,12,0,0,0-.3,1.76,16.61,16.61,0,0,0-.1,1.87V166c0,.61,0,1.22.09,1.82a10.59,10.59,0,0,0,.29,1.73,8.31,8.31,0,0,0,.62,1.74,4.9,4.9,0,0,0,.94,1.36,4.21,4.21,0,0,0,1.24.83,4.11,4.11,0,0,0,1.62.3,4.3,4.3,0,0,0,1.6-.29,4,4,0,0,0,1.24-.8,5,5,0,0,0,1-1.36,8.35,8.35,0,0,0,.65-1.74,12.05,12.05,0,0,0,.3-1.75c.07-.6.1-1.22.11-1.84v-3.36C350.09,162,350.06,161.39,350,160.77Z"/><circle class="cls-1" cx="202.46" cy="165.8" r="3.42"/></g></g></svg>