<svg xmlns="http://www.w3.org/2000/svg" viewBox="0 0 28.74 42.14"><defs><style>.cls-1{fill:#f7e864;}.cls-2{fill:#231e1a;}</style></defs><g id="Capa_2" data-name="Capa 2"><g id="Capa_1-2" data-name="Capa 1"><path class="cls-1" d="M14.37.73C12.69,15.19,13.1,19.49.74,21.08,13,23.24,12.68,27.43,14.37,41.42,15.65,27.51,15.83,23.05,28,21.08,15.62,19.46,16.14,15.2,14.37.73Z"/><path class="cls-2" d="M13.62.73c-.34,2.89-.6,5.79-1,8.66A19.35,19.35,0,0,1,11,15.19C9.05,19,4.6,19.82.74,20.33c-.75.09-1.12,1.3-.2,1.47,3.89.7,8.37,1.69,10.38,5.47a18.28,18.28,0,0,1,1.61,5.57c.47,2.84.74,5.72,1.09,8.58a.75.75,0,0,0,1.5,0c.26-2.88.48-5.78.94-8.64a17.6,17.6,0,0,1,1.64-5.55c2.07-3.78,6.57-4.78,10.5-5.43.91-.15.55-1.37-.2-1.47-4.05-.54-8.59-1.47-10.43-5.56A23.37,23.37,0,0,1,16.08,8.6c-.21-1.43-.37-2.88-.54-4.32-.1-.81-.19-1.62-.29-2.43-.05-.49,0-1.49-.5-1.76C13.89-.34,13.13,1,14,1.38h0L13.62.73c.38,3.11.67,6.23,1.17,9.32a18.61,18.61,0,0,0,1.86,6.21c2.27,4.06,7.11,5,11.35,5.57l-.2-1.48c-4.27.71-9,1.93-11.3,6a18,18,0,0,0-1.88,6.07c-.49,3-.72,6-1,9h1.5c-.36-3-.65-6-1.15-9a18.54,18.54,0,0,0-1.85-6.09c-2.24-4-7-5.24-11.18-6l-.2,1.48c4.25-.56,9.09-1.5,11.38-5.56A18.29,18.29,0,0,0,14,10.18c.51-3.13.79-6.3,1.16-9.45C15.23-.22,13.73-.22,13.62.73Z"/></g></g></svg>