<svg xmlns="http://www.w3.org/2000/svg" xmlns:xlink="http://www.w3.org/1999/xlink" viewBox="0 0 279.53 321.22"><defs><style>.cls-1{fill:none;}.cls-2{clip-path:url(#clip-path);}.cls-3{fill:#b27cf0;stroke:#000;stroke-miterlimit:10;}.cls-4{fill:#231e1a;}.cls-5{fill:#fff;}</style><clipPath id="clip-path"><circle class="cls-1" cx="152.03" cy="125" r="125"/></clipPath></defs><g id="Capa_2" data-name="Capa 2"><g id="Capa_1-2" data-name="Capa 1"><g class="cls-2"><image width="2559" height="3228" transform="translate(24.53) scale(0.1 0.1)" xlink:href="../../../../../Documents/0001%20MIS%20DOCS/wvvq@3x.jpg"/></g><path class="cls-3" d="M247.15,13.81c-2.61,22.44-2,29.12-21.16,31.59,19,3.35,18.53,9.86,21.16,31.59,2-21.6,2.27-28.52,21.16-31.59-19.22-2.5-18.41-9.12-21.16-31.59Z"/><path class="cls-4" d="M34.58,159.44a1.79,1.79,0,0,1-1,.09,86.16,86.16,0,0,1-15.89-4.06A42,42,0,0,1,7.13,150,17.12,17.12,0,0,1,.19,138.69a14,14,0,0,1,4.87-13A14,14,0,0,1,18.75,123c.43.14.85.32,1.26.49a13.65,13.65,0,0,1,10-8.48,13.9,13.9,0,0,1,14.29,4.94,23.28,23.28,0,0,1,1.59,2.32l0,.08,1.53,3.78v.25a15.09,15.09,0,0,1,.46,4.76A30.11,30.11,0,0,1,45.62,141,79.13,79.13,0,0,1,35.4,158.77,1.85,1.85,0,0,1,34.58,159.44ZM9.92,125.49a12.28,12.28,0,0,0-3.3,2,11.61,11.61,0,0,0-4.06,10.82,14.67,14.67,0,0,0,6,9.73,39.52,39.52,0,0,0,9.92,5.16,84.09,84.09,0,0,0,15.19,3.91,75.8,75.8,0,0,0,9.77-17A28.09,28.09,0,0,0,45.58,131a13,13,0,0,0-.41-4.06c0-.13,0-.23-.05-.31l-1.29-3.19a21.36,21.36,0,0,0-1.35-2,11.47,11.47,0,0,0-11.91-4.11c-4.27,1-7.12,3.55-8.69,7.94l-.24,1.5-1.4-.58-.84-.36c-.47-.21-.94-.42-1.41-.58A11.55,11.55,0,0,0,9.92,125.49Z"/><path class="cls-4" d="M21.8,141.41c1.43-.58,1.58-3.54.34-6.6s-3.41-5.08-4.84-4.5-1.58,3.54-.34,6.6S20.37,142,21.8,141.41Z"/><path class="cls-4" d="M31.16,137.62c1.43-.58,1.58-3.54.34-6.6s-3.41-5.08-4.84-4.5-1.58,3.53-.34,6.6S29.73,138.2,31.16,137.62Z"/><path class="cls-4" d="M40.47,137.67a1.09,1.09,0,0,0-1.53.23,1.67,1.67,0,0,1-1.53.9,2.06,2.06,0,0,1-1.63-1.08A1.09,1.09,0,0,0,34,139a4.61,4.61,0,0,0,2.27,1.79c-.23,3.08-2.71,6.11-6.23,7.54s-7.41,1-9.73-1.08a4.55,4.55,0,0,0,.39-2.86,1.09,1.09,0,0,0-2.16.31,2.07,2.07,0,0,1-.42,1.91,1.68,1.68,0,0,1-1.73.42,1.09,1.09,0,0,0-.35,2.15,4.31,4.31,0,0,0,2.37-.18,2.64,2.64,0,0,0,.38-.18c2.94,2.68,7.69,3.31,12.07,1.53s7.35-5.53,7.59-9.5a3.76,3.76,0,0,0,.4-.13,4.29,4.29,0,0,0,1.83-1.52A1.1,1.1,0,0,0,40.47,137.67Z"/><polygon points="262.05 224.08 260.79 219.38 262.35 217.82 262.43 217.8 258.81 204.29 256.89 204.81 256.37 202.89 254.45 203.4 253.94 201.48 250.09 202.51 249.58 200.59 243.81 202.13 243.3 200.21 239.45 201.24 237.39 193.56 235.47 194.07 234.96 192.15 231.06 193.19 229.65 195.63 229.66 195.65 226.81 198.47 230.42 211.9 226.09 213.06 223.25 215.9 223.78 217.88 224.81 221.72 226.73 221.21 227.24 223.13 229.17 222.61 230.2 226.46 232.12 225.94 233.15 229.78 235.07 229.27 236.1 233.11 238.02 232.6 239.05 236.44 239.56 238.36 256.86 233.73 258.83 233.2 261.67 230.36 260.42 225.66 261.98 224.1 262.05 224.08"/><polygon class="cls-5" points="238.82 231.21 236.9 231.72 235.87 227.88 233.95 228.39 232.92 224.55 231 225.06 229.97 221.22 228.05 221.74 227.53 219.81 225.61 220.33 224.51 216.24 226.67 214.08 231.81 212.7 228.08 198.81 230.93 195.99 234.16 193.54 234.67 195.46 236.59 194.94 238.65 202.63 242.5 201.6 243.01 203.52 248.77 201.98 249.29 203.9 253.13 202.87 253.65 204.79 255.57 204.28 256.08 206.2 258.01 205.68 261.15 217.42 259.53 219.04 260.77 223.7 259.15 225.32 260.41 230.02 258.25 232.18 240.37 236.97 238.82 231.21"/><path class="cls-5" d="M256.87,204.84l-.52-1.92-1.92.52-.51-1.92-3.85,1-.51-1.93-5.77,1.55-.51-1.92-3.85,1-2.06-7.69-1.92.51-.51-1.92-3.85,1,.52,1.92-1.92.52,4.63,17.29-1.92.52-.51-1.92-5.77,1.54.51,1.92.26,1,.78,2.89,1.92-.52.51,1.92,1.92-.51,1,3.84,1.92-.51,1,3.84,1.92-.51,1,3.84,1.92-.52,1,3.85.51,1.92,17.3-4.63,1.92-.52-1.54-5.76,1.92-.52-1.55-5.76,1.92-.52-3.6-13.45Z"/><rect x="232.74" y="194.99" width="1.99" height="23.87" transform="translate(-45.59 67.54) rotate(-15)"/><rect x="231.28" y="192.66" width="3.98" height="1.99" transform="translate(-42.18 66.98) rotate(-15)"/><rect x="237.74" y="193.54" width="1.99" height="17.91" transform="matrix(0.97, -0.26, 0.26, 0.97, -44.28, 68.7)"/><rect x="239.62" y="200.73" width="3.98" height="1.99" transform="translate(-43.99 69.45) rotate(-15.01)"/><rect x="245.05" y="203.73" width="1.99" height="5.97" transform="matrix(0.97, -0.26, 0.26, 0.97, -45.07, 70.61)"/><rect x="243.95" y="201.36" width="5.97" height="1.99" transform="translate(-43.96 70.8) rotate(-15)"/><rect x="251.33" y="204.11" width="1.99" height="5.96" transform="translate(-45 72.37) rotate(-15)"/><rect x="250.26" y="202" width="3.98" height="1.99" transform="translate(-43.94 72.19) rotate(-15)"/><rect x="254.65" y="203.15" width="1.99" height="1.99" transform="translate(-44.15 73.17) rotate(-15.01)"/><rect x="258.64" y="204.35" width="1.99" height="13.93" transform="translate(-45.85 74.4) rotate(-15)"/><rect x="259.29" y="218.45" width="1.99" height="5.97" transform="translate(-48.47 74.97) rotate(-15.01)"/><rect x="258.91" y="224.73" width="1.99" height="5.97" transform="translate(-50.1 75.06) rotate(-15.01)"/><rect x="241.86" y="231.22" width="17.91" height="1.99" transform="matrix(0.97, -0.26, 0.26, 0.97, -51.55, 72.83)"/><rect x="232.62" y="213.17" width="1.99" height="1.99" transform="matrix(0.97, -0.26, 0.26, 0.97, -47.43, 67.68)"/><rect x="226.28" y="212.28" width="5.97" height="1.99" transform="translate(-47.37 66.58) rotate(-14.99)"/><rect x="227.12" y="214.68" width="1.99" height="3.98" transform="translate(-48.32 66.45) rotate(-15.01)"/><rect x="229.81" y="218.04" width="1.99" height="1.99" transform="translate(-48.85 67.25) rotate(-15.01)"/><rect x="232.5" y="219.41" width="1.99" height="3.98" transform="matrix(0.97, -0.26, 0.26, 0.97, -49.36, 67.99)"/><rect x="235.46" y="222.74" width="1.99" height="3.98" transform="translate(-50.11 68.86) rotate(-15)"/><rect x="238.41" y="226.07" width="1.99" height="3.98" transform="matrix(0.97, -0.26, 0.26, 0.97, -50.85, 69.69)"/><rect x="241.36" y="229.4" width="1.99" height="3.98" transform="translate(-51.58 70.52) rotate(-14.98)"/></g></g></svg>