<svg xmlns="http://www.w3.org/2000/svg" viewBox="0 0 110.07 289"><defs><style>.cls-1{fill:#231e1a;}</style></defs><g id="Capa_2" data-name="Capa 2"><g id="Capa_1-2" data-name="Capa 1"><path class="cls-1" d="M51.2,91.41A8.65,8.65,0,0,1,51.91,90v0A7.77,7.77,0,0,1,53,88.32a10.52,10.52,0,0,1,.81-2.19C57.93,77.89,61.74,65,73,65.19a13.4,13.4,0,0,1,8.36,3l28.67-10.94L78.49,44.31,88.87,11.75,59.08,28.43,40.15,0,34.59,33.72.6,30.83,23.45,56.21,0,81,34.05,79l4.75,33.84,6-8.55Z"/><rect class="cls-1" x="48.9" y="123.46" width="20.42" height="121.13"/><rect class="cls-1" x="76.91" y="123.46" width="20.42" height="121.13"/><path class="cls-1" d="M97.25,271.39l0,.1c-7.72,23.4-40.79,23.33-48.4-.1h0V249.71H97.25Z"/><path class="cls-1" d="M84,91,77.14,77.38a4.58,4.58,0,0,0-8.2,0L62.15,91Z"/><polygon class="cls-1" points="60.24 94.83 48.82 117.76 97.33 117.76 85.86 94.83 60.24 94.83"/></g></g></svg>