<svg xmlns="http://www.w3.org/2000/svg" viewBox="0 0 54.78 54.78"><defs><style>.cls-1{fill:#b27cf0;}</style></defs><g id="Capa_2" data-name="Capa 2"><g id="Capa_1-2" data-name="Capa 1"><path class="cls-1" d="M27.39,0A27.39,27.39,0,1,0,54.78,27.39,27.42,27.42,0,0,0,27.39,0Zm0,51.62A24.23,24.23,0,1,1,51.62,27.39,24.26,24.26,0,0,1,27.39,51.62Z"/><path class="cls-1" d="M20.07,27.4c2.24,0,4.06-3.89,4.06-8.67s-1.82-8.67-4.06-8.67S16,13.94,16,18.73,17.84,27.4,20.07,27.4Z"/><path class="cls-1" d="M34.7,27.4c2.24,0,4-3.89,4-8.67s-1.81-8.67-4-8.67-4.05,3.88-4.05,8.67S32.46,27.4,34.7,27.4Z"/><path class="cls-1" d="M47.17,32.53A1.57,1.57,0,0,0,45,32a2.43,2.43,0,0,1-2.55.37,3,3,0,0,1-1.6-2.33,1.58,1.58,0,0,0-3.07.76,6.64,6.64,0,0,0,2.08,3.63c-2,4-7,6.73-12.47,6.73s-10.48-2.73-12.47-6.73A6.7,6.7,0,0,0,17,30.81a1.58,1.58,0,0,0-3.07-.76,3,3,0,0,1-1.61,2.33A2.43,2.43,0,0,1,9.77,32a1.58,1.58,0,0,0-2.17.52,1.6,1.6,0,0,0,.53,2.18,6.41,6.41,0,0,0,3.29,1,4.26,4.26,0,0,0,.61,0c2.49,5.2,8.51,8.62,15.36,8.62s12.87-3.42,15.36-8.62a4.26,4.26,0,0,0,.61,0,6.34,6.34,0,0,0,3.28-1A1.58,1.58,0,0,0,47.17,32.53Z"/></g></g></svg>